<svg id="LipperHub_-_horizontal" data-name="LipperHub - horizontal" xmlns="http://www.w3.org/2000/svg" xmlns:xlink="http://www.w3.org/1999/xlink" width="196.723" height="78" viewBox="0 0 196.723 78">
  <defs>
    <linearGradient id="linear-gradient" x1="0.205" y1="0.457" x2="-0.789" y2="0.457" gradientUnits="objectBoundingBox">
      <stop offset="0" stop-color="#00aebc"/>
      <stop offset="1" stop-color="#319295"/>
    </linearGradient>
    <linearGradient id="linear-gradient-2" x1="0.376" y1="0.463" x2="-0.621" y2="0.463" xlink:href="#linear-gradient"/>
  </defs>
  <path id="Caminho_10" data-name="Caminho 10" d="M935.55,37.065l.362-3.149c1.747-15.159,11.053-22.322,12.9-23.6l.165-.1L967.667,0l-.489,3.749c-.118.911-3.2,22.429-28.639,32.172ZM951,13.419c-1.186.841-8.361,6.334-10.78,17.7,14.8-6.806,20.267-17.978,22.2-23.946Z" transform="translate(-770.945)" fill="url(#linear-gradient)"/>
  <path id="Caminho_11" data-name="Caminho 11" d="M823.33,99.71l-29.4-17.163a2.878,2.878,0,0,1-1.441-2.426,2.65,2.65,0,0,1,1.378-2.359h0L831.276,57.3l2.039,3.2c-.1.062-10.011,6.6-11.575,21.567a45.614,45.614,0,0,0,.788,13.669ZM795.8,81.021Zm1.445-.79,20.918,12.205a46.863,46.863,0,0,1-.2-10.886,36.307,36.307,0,0,1,5.157-15.483Z" transform="translate(-653.054 -47.218)" fill="url(#linear-gradient-2)"/>
  <path id="Caminho_12" data-name="Caminho 12" d="M15.012,274.456v3.426H0V251.9H1.925c.962,0,1.077.232,1.962,2.194v20.362Z" transform="translate(0 -207.579)" fill="#fff"/>
  <path id="Caminho_13" data-name="Caminho 13" d="M103.316,251.014a2.366,2.366,0,1,1,1.164,2.1A2.366,2.366,0,0,1,103.316,251.014Zm.5,4.89h1.849c.924,0,1.036.23,1.886,2.111v17.127h-3.735Z" transform="translate(-85.137 -204.846)" fill="#fff"/>
  <path id="Caminho_14" data-name="Caminho 14" d="M167.016,298.747c0,6.081-3.542,10.008-8.737,10.008A8.752,8.752,0,0,1,153,306.908v9.351h-3.73V289.316h1.849c.922,0,1.038.23,1.888,2.111v.318a7.469,7.469,0,0,1,5.848-2.616C164.014,289.125,167.016,292.7,167.016,298.747Zm-3.848.077c0-4.427-2.041-6.51-5.043-6.51a5.755,5.755,0,0,0-5.118,3.079V299.7c0,4.156,1.962,5.889,5.278,5.889C161.2,305.6,163.168,303.482,163.168,298.825Z" transform="translate(-123.007 -238.259)" fill="#fff"/>
  <path id="Caminho_15" data-name="Caminho 15" d="M285,298.747c0,6.081-3.542,10.008-8.737,10.008a8.748,8.748,0,0,1-5.278-1.847v9.351h-3.73V289.316H269.1c.924,0,1.038.23,1.886,2.111v.318a7.471,7.471,0,0,1,5.848-2.616C281.985,289.125,285,292.7,285,298.747Zm-3.85.077c0-4.427-2.039-6.51-5.043-6.51a5.755,5.755,0,0,0-5.118,3.079V299.7c0,4.156,1.962,5.889,5.278,5.889C279.181,305.6,281.146,303.482,281.146,298.825Z" transform="translate(-220.229 -238.259)" fill="#fff"/>
  <path id="Caminho_16" data-name="Caminho 16" d="M399.816,299.9l-13.242.424c.461,3.695,2.849,5.278,5.467,5.278a5.944,5.944,0,0,0,4.773-2.194l2.31,2.039a8.894,8.894,0,0,1-7.2,3.311c-4.926,0-9.315-3.311-9.315-10.008,0-5.7,3.695-9.622,8.891-9.622,5.278,0,8.315,3.695,8.315,9.892Zm-3.851-3.118a4.087,4.087,0,0,0-4.464-4.464c-2.579,0-4.466,1.693-4.888,4.888Z" transform="translate(-315.292 -238.259)" fill="#fff"/>
  <path id="Caminho_17" data-name="Caminho 17" d="M508.518,290.372l-1.5,2.773a5.037,5.037,0,0,0-2.734-.931c-2.692,0-4.346,2.347-4.346,5.734v10.546H496.2V289.256h1.849c.922,0,1.038.23,1.888,2.111v.19a6.028,6.028,0,0,1,4.694-2.5A6.158,6.158,0,0,1,508.518,290.372Z" transform="translate(-408.896 -238.199)" fill="#fff"/>
  <path id="Caminho_18" data-name="Caminho 18" d="M602.534,254.094v23.788h-3.887V266.6H587.637v11.278H583.75V251.9h1.925c.963,0,1.079.232,1.962,2.194v9.084h11.011V251.9h1.925C601.535,251.9,601.649,252.132,602.534,254.094Z" transform="translate(-481.042 -207.579)" fill="#fff"/>
  <path id="Caminho_19" data-name="Caminho 19" d="M729.657,292.308v17.126H726.5l-.537-2.5a7.458,7.458,0,0,1-5.579,2.7c-4.312,0-6.813-2.926-6.813-6.967V290.19h1.846c.924,0,1.04.23,1.886,2.111v9.775c0,3.118,1.427,4.349,3.734,4.349a5.729,5.729,0,0,0,4.889-3.079V290.19h1.849C728.693,290.19,728.809,290.421,729.657,292.308Z" transform="translate(-588.021 -239.133)" fill="#fff"/>
  <path id="Caminho_20" data-name="Caminho 20" d="M844.686,263.568c0,6.081-3.542,10.008-8.739,10.008a7.781,7.781,0,0,1-5.428-2.31l-.422,2.111H826.94V246.44h1.849c.924,0,1.036.231,1.886,2.111v8.016a7.471,7.471,0,0,1,5.848-2.616C841.682,253.946,844.686,257.525,844.686,263.568Zm-3.85.077c0-4.427-2.039-6.51-5.043-6.51a5.755,5.755,0,0,0-5.118,3.079v4.311c0,4.156,1.962,5.889,5.278,5.889C838.871,270.42,840.836,268.3,840.836,263.646Z" transform="translate(-681.444 -203.08)" fill="#fff"/>
</svg>
